<svg width="137" height="96" viewBox="0 0 137 96" fill="none" xmlns="http://www.w3.org/2000/svg">
<path d="M49.4269 0.290039C43.0069 0.290039 37.7969 5.50004 37.7969 11.92V84.22C37.7969 90.64 43.0069 95.85 49.4269 95.85C55.8469 95.85 61.0569 90.64 61.0569 84.22V11.92C61.0569 5.50004 55.8469 0.290039 49.4269 0.290039Z" fill="#B6DBD9"/>
<path d="M124.888 8.42004C118.468 8.42004 113.258 13.63 113.258 20.05V76.08C113.258 82.5 118.468 87.71 124.888 87.71C131.308 87.71 136.518 82.5 136.518 76.08V20.05C136.518 13.63 131.308 8.42004 124.888 8.42004Z" fill="#B6DBD9"/>
<path d="M22.4486 43.61C22.1586 42.91 21.7986 42.2399 21.3786 41.5999C20.9486 40.9599 20.4586 40.3799 19.9286 39.8399C19.3886 39.2999 18.7886 38.81 18.1486 38.39C17.5286 37.97 16.8486 37.61 16.1386 37.31C15.4386 37.03 14.7086 36.81 13.9586 36.65C12.4686 36.36 10.9186 36.36 9.41858 36.65C8.68858 36.81 7.94859 37.03 7.23859 37.31C6.53859 37.6 5.86858 37.97 5.22858 38.39C4.58858 38.81 4.00857 39.2999 3.46857 39.8399C2.92857 40.3799 2.44862 40.9699 2.01862 41.5999C1.59862 42.2399 1.23861 42.91 0.948608 43.61C0.658608 44.32 0.438574 45.04 0.288574 45.79C0.128574 46.54 0.0585938 47.3099 0.0585938 48.0699C0.0585938 48.8299 0.128574 49.5899 0.288574 50.3399C0.438574 51.0899 0.658608 51.82 0.948608 52.52C1.22861 53.22 1.59862 53.9 2.01862 54.53C2.44862 55.17 2.92857 55.77 3.46857 56.31C4.00857 56.84 4.59858 57.33 5.22858 57.75C5.86858 58.17 6.53859 58.5199 7.23859 58.8199C7.94859 59.1099 8.68858 59.33 9.41858 59.48C10.1686 59.63 10.9386 59.7099 11.6986 59.7099C12.4586 59.7099 13.2186 59.62 13.9686 59.48C14.7186 59.33 15.4486 59.1099 16.1486 58.8199C16.8586 58.5299 17.5286 58.17 18.1586 57.75C18.7986 57.32 19.3986 56.83 19.9386 56.31C20.4686 55.77 20.9586 55.17 21.3886 54.53C21.8086 53.91 22.1586 53.22 22.4586 52.52C22.7486 51.82 22.9686 51.0899 23.1186 50.3399C23.2786 49.5899 23.3486 48.8299 23.3486 48.0699C23.3486 47.3099 23.2786 46.54 23.1186 45.79C22.9686 45.04 22.7486 44.32 22.4586 43.61H22.4486Z" fill="#B6DBD9"/>
<path d="M87.1573 10.9301C80.7373 10.9301 75.5273 16.1401 75.5273 22.5601V39.39C75.5273 45.81 80.7373 51.02 87.1573 51.02C93.5773 51.02 98.7873 45.81 98.7873 39.39V22.5601C98.7873 16.1401 93.5773 10.9301 87.1573 10.9301Z" fill="#B6DBD9"/>
<path d="M97.8995 69.12C97.6095 68.42 97.2495 67.75 96.8295 67.11C96.3995 66.47 95.9095 65.8899 95.3895 65.3499C94.8495 64.8099 94.2495 64.32 93.6095 63.9C92.9895 63.48 92.3095 63.1199 91.5995 62.8199C90.8995 62.5399 90.1695 62.32 89.4195 62.16C87.9295 61.87 86.3795 61.87 84.8795 62.16C84.1495 62.32 83.4095 62.5399 82.6995 62.8199C81.9995 63.1099 81.3295 63.48 80.6895 63.9C80.0495 64.32 79.4695 64.8099 78.9295 65.3499C78.3895 65.8899 77.9095 66.48 77.4795 67.11C77.0595 67.75 76.6995 68.42 76.4095 69.12C76.1195 69.83 75.8995 70.55 75.7495 71.3C75.5895 72.05 75.5195 72.8199 75.5195 73.5799C75.5195 74.3399 75.5895 75.0999 75.7495 75.8499C75.8995 76.5999 76.1195 77.33 76.4095 78.03C76.6895 78.73 77.0595 79.41 77.4795 80.04C77.9095 80.68 78.3895 81.2799 78.9295 81.8199C79.4695 82.3499 80.0595 82.84 80.6895 83.26C81.3295 83.68 81.9995 84.0299 82.6995 84.3299C83.4095 84.6199 84.1495 84.84 84.8795 84.99C85.6295 85.14 86.3995 85.2199 87.1595 85.2199C87.9195 85.2199 88.6795 85.13 89.4295 84.99C90.1795 84.84 90.9095 84.6199 91.6095 84.3299C92.3195 84.0399 92.9895 83.68 93.6195 83.26C94.2595 82.83 94.8595 82.3399 95.3995 81.8199C95.9295 81.2799 96.4195 80.68 96.8395 80.04C97.2595 79.42 97.6095 78.73 97.9095 78.03C98.1995 77.33 98.4195 76.5999 98.5695 75.8499C98.7295 75.0999 98.7995 74.3399 98.7995 73.5799C98.7995 72.8199 98.7295 72.05 98.5695 71.3C98.4195 70.55 98.1995 69.83 97.9095 69.12H97.8995Z" fill="#B6DBD9"/>
</svg>
