<svg width="220" height="30" viewBox="0 0 220 30" fill="none" xmlns="http://www.w3.org/2000/svg">
<path d="M68.561 7.02153H64.1891C64.085 7.02153 63.9904 7.08777 63.9573 7.18713L59.6374 19.8155C59.5617 20.0379 59.2494 20.0379 59.1737 19.8155L54.8539 7.18713C54.8208 7.08777 54.7261 7.02153 54.622 7.02153H50.2501C50.0798 7.02153 49.9615 7.19186 50.0183 7.348L56.8979 26.3023C56.931 26.397 57.0256 26.4632 57.1297 26.4632H61.6861C61.7902 26.4632 61.8801 26.397 61.918 26.3023L68.7976 7.348C68.8543 7.18713 68.7361 7.02153 68.5657 7.02153H68.561Z" fill="#1C198E"/>
<path d="M85.0471 7.79749C83.5662 6.92217 81.8439 6.48214 79.8898 6.48214C77.9357 6.48214 76.2702 6.9127 74.794 7.77857C73.3178 8.64443 72.1586 9.84623 71.3211 11.3887C70.4789 12.9312 70.0625 14.7149 70.0625 16.7447C70.0625 18.7745 70.4741 20.5205 71.2974 22.0629C72.1207 23.6054 73.2705 24.8167 74.7467 25.692C76.2229 26.5673 77.9404 27.0073 79.8945 27.0073C81.8486 27.0073 83.552 26.572 85.0329 25.7014C86.5139 24.8308 87.6731 23.6243 88.5058 22.0819C89.3386 20.5394 89.755 18.7603 89.755 16.7447C89.755 14.7291 89.3386 12.969 88.5106 11.4265C87.6826 9.88408 86.5281 8.67282 85.0424 7.79749H85.0471ZM83.41 20.8375C82.6341 21.9021 81.4607 22.432 79.8898 22.432C78.3189 22.432 77.2118 21.921 76.4264 20.8943C75.6409 19.8675 75.2482 18.4859 75.2482 16.7447C75.2482 15.6186 75.4138 14.625 75.745 13.7734C76.0762 12.9217 76.5825 12.2546 77.2686 11.7767C77.9546 11.2988 78.83 11.0575 79.8993 11.0575C81.4465 11.0575 82.6151 11.5732 83.4006 12.6047C84.186 13.6361 84.5787 15.0177 84.5787 16.7447C84.5787 18.4717 84.1907 19.7776 83.4195 20.8422L83.41 20.8375Z" fill="#1C198E"/>
<path d="M107.839 8.21859C106.282 7.05938 104.361 6.48214 102.066 6.48214C100.084 6.48214 98.3708 6.9269 96.9183 7.81642C95.4657 8.70594 94.3396 9.92193 93.5447 11.4691C92.7451 13.0163 92.3477 14.7764 92.3477 16.7447C92.3477 18.713 92.7309 20.4353 93.5021 21.9825C94.2686 23.5297 95.3758 24.7551 96.8142 25.6541C98.2526 26.5531 99.9843 27.0026 102 27.0026C104.257 27.0026 106.154 26.4443 107.687 25.3277C109.159 24.2583 110.181 22.7537 110.748 20.8091C110.786 20.6719 110.701 20.5299 110.564 20.5015L106.031 19.5552C105.908 19.5316 105.79 19.6026 105.752 19.7208C105.463 20.5583 105.056 21.2065 104.522 21.6749C103.945 22.1812 103.107 22.432 102 22.432C100.524 22.432 99.4118 21.9068 98.6595 20.8564C97.9072 19.806 97.5334 18.4339 97.5334 16.7447C97.5334 15.666 97.6895 14.696 98.0018 13.8349C98.3141 12.9785 98.8014 12.2971 99.4591 11.8003C100.117 11.3035 100.964 11.0528 102 11.0528C102.899 11.0528 103.708 11.3366 104.422 11.8997C105.085 12.4202 105.563 13.1346 105.856 14.0336C105.899 14.1566 106.026 14.2323 106.149 14.1992L110.588 13.0258C110.715 12.9927 110.796 12.8602 110.763 12.7324C110.304 10.8398 109.329 9.33523 107.834 8.22333L107.839 8.21859Z" fill="#1C198E"/>
<path d="M129.293 10.0118C128.606 8.7154 127.599 7.80223 126.269 7.27703C124.935 6.7471 123.411 6.48687 121.694 6.48687C119.352 6.48687 117.506 6.99314 116.148 8.00095C114.857 8.96144 113.958 10.1916 113.452 11.6915C113.409 11.8193 113.48 11.9612 113.612 12.0038L117.587 13.2624C117.71 13.3002 117.838 13.234 117.89 13.1157C118.211 12.3445 118.732 11.7956 119.446 11.4786C120.227 11.1285 120.975 10.9581 121.699 10.9581C122.995 10.9581 123.918 11.2278 124.471 11.7672C124.906 12.193 125.167 12.8034 125.261 13.603C124.433 13.726 123.648 13.8443 122.905 13.9532C121.646 14.1377 120.516 14.3364 119.522 14.5399C118.524 14.7433 117.667 14.9799 116.948 15.2401C115.902 15.6234 115.074 16.1013 114.455 16.6738C113.835 17.2463 113.39 17.8992 113.116 18.6468C112.841 19.3896 112.699 20.2129 112.699 21.1119C112.699 22.1907 112.95 23.1796 113.447 24.0738C113.944 24.9681 114.677 25.6825 115.642 26.2172C116.607 26.7518 117.786 27.0168 119.181 27.0168C120.861 27.0168 122.252 26.7234 123.35 26.1415C124.216 25.6825 125.034 24.9917 125.805 24.0833V26.2314C125.805 26.3686 125.914 26.4774 126.051 26.4774H129.846C129.983 26.4774 130.092 26.3686 130.092 26.2314V14.5919C130.092 13.7024 130.054 12.898 129.983 12.1789C129.912 11.4597 129.685 10.7405 129.297 10.0166L129.293 10.0118ZM124.722 20.5583C124.589 20.8327 124.339 21.1781 123.974 21.585C123.61 21.992 123.118 22.3563 122.498 22.6733C121.878 22.9903 121.121 23.1512 120.222 23.1512C119.659 23.1512 119.172 23.066 118.765 22.9004C118.358 22.7348 118.041 22.4888 117.819 22.1718C117.596 21.8547 117.487 21.4715 117.487 21.0267C117.487 20.705 117.558 20.4069 117.696 20.1467C117.833 19.8817 118.051 19.6404 118.344 19.418C118.637 19.1956 119.025 18.9875 119.503 18.7982C119.924 18.6421 120.412 18.5001 120.96 18.3676C121.514 18.2352 122.238 18.0885 123.137 17.9276C123.714 17.8235 124.41 17.7052 125.214 17.568C125.205 17.9087 125.186 18.2919 125.162 18.7225C125.119 19.4228 124.973 20.0379 124.722 20.5678V20.5583Z" fill="#1C198E"/>
<path d="M135.086 0H139.496C139.633 0 139.742 0.108823 139.742 0.246036V26.2219C139.742 26.3544 139.633 26.4679 139.496 26.4679H135.086C134.953 26.4679 134.84 26.3591 134.84 26.2219V0.246036C134.84 0.108823 134.949 0 135.086 0Z" fill="#1C198E"/>
<path d="M142.934 10.802H146V18.221C146 19.3849 146.01 20.4258 146.038 21.3437C146.062 22.2617 146.313 23.1654 146.795 24.0549C147.325 25.0012 148.096 25.692 149.109 26.1178C150.122 26.5436 151.276 26.7708 152.568 26.8039C153.793 26.8323 155.042 26.7329 156.315 26.5058C156.433 26.4869 156.518 26.3828 156.518 26.2645V22.678C156.518 22.5313 156.391 22.4178 156.244 22.4367C155.198 22.5645 154.243 22.6023 153.367 22.5455C152.421 22.484 151.73 22.115 151.295 21.4289C151.068 21.0693 150.945 20.5867 150.926 19.9811C150.907 19.3754 150.897 18.6941 150.897 17.9371V10.8067H156.272C156.41 10.8067 156.518 10.6979 156.518 10.5607V7.26757C156.518 7.13035 156.41 7.02153 156.272 7.02153H150.897V1.86421C150.897 1.72699 150.789 1.61817 150.651 1.61817H146.242C146.104 1.61817 145.996 1.72699 145.996 1.86421V7.02153H142.93C142.792 7.02153 142.684 7.13035 142.684 7.26757V10.5607C142.684 10.6979 142.792 10.8067 142.93 10.8067L142.934 10.802Z" fill="#1C198E"/>
<path d="M163.24 25.7204C164.759 26.5768 166.515 27.0073 168.507 27.0073C170.38 27.0073 172.102 26.5153 173.683 25.5311C175.183 24.5943 176.304 23.2978 177.037 21.6466C177.099 21.5141 177.023 21.3532 176.881 21.3154L172.448 20.0426C172.334 20.0095 172.216 20.0662 172.159 20.1703C171.804 20.8706 171.312 21.4147 170.683 21.8027C169.997 22.2238 169.178 22.432 168.218 22.432C166.694 22.432 165.54 21.9352 164.754 20.9463C164.177 20.2224 163.818 19.2761 163.661 18.1121H177.085C177.212 18.1121 177.321 18.0128 177.331 17.885C177.501 15.6281 177.255 13.6551 176.593 11.9754C175.907 10.2342 174.851 8.88573 173.423 7.92524C171.994 6.96475 170.262 6.48687 168.218 6.48687C166.297 6.48687 164.598 6.92217 163.122 7.79276C161.646 8.66336 160.487 9.88408 159.649 11.4549C158.807 13.0258 158.391 14.8758 158.391 17.0002C158.391 18.9449 158.821 20.6719 159.678 22.1765C160.534 23.6811 161.722 24.864 163.24 25.7251V25.7204ZM168.436 10.731C169.864 10.731 170.891 11.1663 171.525 12.0369C171.942 12.6094 172.216 13.4232 172.358 14.4784H163.794C163.988 13.5794 164.305 12.8365 164.754 12.2546C165.54 11.242 166.77 10.731 168.436 10.731Z" fill="#1C198E"/>
<path d="M189.641 27.0073C191.898 27.0073 193.796 26.449 195.329 25.3324C196.8 24.2631 197.822 22.7585 198.39 20.8138C198.428 20.6766 198.343 20.5347 198.205 20.5063L193.673 19.56C193.55 19.5363 193.431 19.6073 193.393 19.7256C193.105 20.563 192.698 21.2113 192.163 21.6797C191.586 22.1859 190.749 22.4367 189.641 22.4367C188.165 22.4367 187.053 21.9115 186.301 20.8611C185.549 19.8107 185.175 18.4386 185.175 16.7495C185.175 15.6707 185.331 14.7007 185.643 13.8396C185.956 12.9832 186.443 12.3019 187.101 11.8051C187.758 11.3083 188.605 11.0575 189.641 11.0575C190.54 11.0575 191.349 11.3414 192.064 11.9044C192.726 12.4249 193.204 13.1393 193.498 14.0383C193.54 14.1613 193.668 14.237 193.791 14.2039L198.229 13.0305C198.357 12.9974 198.437 12.8649 198.404 12.7372C197.945 10.8446 196.97 9.33996 195.475 8.22806C193.919 7.06884 191.998 6.4916 189.703 6.4916C187.72 6.4916 186.008 6.93636 184.555 7.82588C183.102 8.7154 181.976 9.93139 181.181 11.4786C180.382 13.0258 179.984 14.7859 179.984 16.7542C179.984 18.7225 180.368 20.4448 181.139 21.992C181.905 23.5392 183.013 24.7646 184.451 25.6636C185.889 26.5626 187.621 27.0121 189.637 27.0121L189.641 27.0073Z" fill="#1C198E"/>
<path d="M201.986 26.4679H206.467C206.604 26.4679 206.713 26.3591 206.713 26.2219V16.2527C206.713 16.2527 206.713 16.2337 206.713 16.2243C206.736 15.1833 206.874 14.3364 207.115 13.6835C207.385 12.9501 207.73 12.3965 208.151 12.018C208.572 11.6395 209.022 11.384 209.5 11.2515C209.977 11.119 210.432 11.0528 210.848 11.0528C211.894 11.0528 212.698 11.2846 213.271 11.753C213.838 12.2214 214.25 12.8034 214.505 13.4989C214.756 14.1945 214.908 14.89 214.955 15.5808C215.002 16.2716 215.026 16.8394 215.026 17.2841V26.2219C215.026 26.3591 215.135 26.4679 215.272 26.4679H219.753C219.89 26.4679 219.999 26.3591 219.999 26.2219V15.5571C219.999 15.2354 219.975 14.7149 219.928 14.0099C219.88 13.3002 219.743 12.5195 219.511 11.6584C219.284 10.802 218.901 9.97398 218.366 9.18382C217.832 8.39366 217.084 7.73599 216.124 7.22025C215.163 6.70452 213.919 6.44429 212.395 6.44429C210.488 6.44429 208.903 6.86066 207.65 7.68867C207.058 8.07665 206.542 8.52614 206.093 9.02768V0.780698C206.093 0.643485 205.984 0.53466 205.847 0.53466H201.977C201.839 0.53466 201.73 0.643485 201.73 0.780698V26.2172C201.73 26.3544 201.839 26.4632 201.977 26.4632L201.986 26.4679Z" fill="#1C198E"/>
<path d="M13.7974 3.12751C12.0042 3.12751 10.5469 4.58481 10.5469 6.37804V26.5768C10.5469 28.37 12.0042 29.8273 13.7974 29.8273C15.5906 29.8273 17.0479 28.37 17.0479 26.5768V6.37804C17.0479 4.58481 15.5906 3.12751 13.7974 3.12751Z" fill="#50A5A1"/>
<path d="M34.8755 5.39863C33.0823 5.39863 31.625 6.85592 31.625 8.64916V24.3009C31.625 26.0942 33.0823 27.5515 34.8755 27.5515C36.6688 27.5515 38.1261 26.0942 38.1261 24.3009V8.64916C38.1261 6.85592 36.6688 5.39863 34.8755 5.39863Z" fill="#50A5A1"/>
<path d="M6.25503 15.2307C6.17459 15.0367 6.07523 14.8474 5.95694 14.6676C5.83866 14.4878 5.70144 14.3269 5.55477 14.1755C5.40336 14.0241 5.23776 13.8869 5.05796 13.7734C4.8829 13.6551 4.69364 13.5557 4.49491 13.4705C4.30092 13.3901 4.09274 13.3286 3.88455 13.286C3.46818 13.2056 3.03762 13.2056 2.61651 13.286C2.41306 13.3286 2.20487 13.3901 2.00615 13.4705C1.81216 13.551 1.6229 13.6551 1.4431 13.7734C1.26331 13.8916 1.10244 14.0241 0.951029 14.1755C0.799622 14.3269 0.66714 14.4925 0.548853 14.6676C0.430565 14.8474 0.331204 15.0319 0.250769 15.2307C0.170333 15.4294 0.108824 15.6328 0.0662405 15.841C0.0236571 16.0492 0 16.2669 0 16.475C0 16.6832 0.0189257 16.9009 0.0662405 17.1091C0.108824 17.3172 0.170333 17.5207 0.250769 17.7194C0.331204 17.9134 0.430565 18.1074 0.548853 18.2825C0.66714 18.4623 0.804353 18.6279 0.951029 18.7793C1.10244 18.926 1.26804 19.0632 1.4431 19.1815C1.6229 19.2997 1.80743 19.3991 2.00615 19.4795C2.20487 19.56 2.40833 19.6215 2.61651 19.6641C2.8247 19.7067 3.04235 19.7303 3.25053 19.7303C3.45872 19.7303 3.67637 19.7067 3.88455 19.6641C4.09274 19.6215 4.29619 19.56 4.49491 19.4795C4.69364 19.3991 4.8829 19.2997 5.05796 19.1815C5.23776 19.0632 5.40336 18.926 5.55477 18.7793C5.70144 18.6279 5.83866 18.4623 5.95694 18.2825C6.07523 18.1074 6.17459 17.9181 6.25503 17.7194C6.33546 17.5254 6.39697 17.3172 6.43956 17.1091C6.48214 16.9009 6.5058 16.688 6.5058 16.475C6.5058 16.2621 6.48687 16.0492 6.43956 15.841C6.39697 15.6328 6.33546 15.4294 6.25503 15.2307Z" fill="#50A5A1"/>
<path d="M24.3326 6.09888C22.5393 6.09888 21.082 7.55618 21.082 9.34942V14.0525C21.082 15.8458 22.5393 17.303 24.3326 17.303C26.1258 17.303 27.5831 15.8458 27.5831 14.0525V9.34942C27.5831 7.55618 26.1258 6.09888 24.3326 6.09888Z" fill="#50A5A1"/>
<path d="M27.3332 22.3563C27.2527 22.1623 27.1534 21.973 27.0351 21.7932C26.9168 21.6134 26.7796 21.4526 26.6329 21.3012C26.4815 21.1498 26.3159 21.0125 26.1361 20.899C25.961 20.7807 25.7718 20.6813 25.573 20.5962C25.379 20.5157 25.1709 20.4542 24.9627 20.4116C24.5463 20.3312 24.1157 20.3312 23.6946 20.4116C23.4912 20.4542 23.283 20.5157 23.0843 20.5962C22.8903 20.6766 22.701 20.7807 22.5212 20.899C22.3414 21.0173 22.1806 21.1498 22.0292 21.3012C21.8777 21.4526 21.7453 21.6182 21.627 21.7932C21.5087 21.973 21.4093 22.1576 21.3289 22.3563C21.2485 22.555 21.1869 22.7585 21.1444 22.9666C21.1018 23.1748 21.0781 23.3925 21.0781 23.6007C21.0781 23.8088 21.0971 24.0265 21.1444 24.2347C21.1869 24.4429 21.2485 24.6463 21.3289 24.845C21.4093 25.039 21.5087 25.233 21.627 25.4081C21.7453 25.5879 21.8777 25.7535 22.0292 25.9049C22.1806 26.0516 22.3462 26.1888 22.5212 26.3071C22.701 26.4254 22.8856 26.5247 23.0843 26.6052C23.283 26.6856 23.4865 26.7471 23.6946 26.7897C23.9028 26.8323 24.1205 26.8559 24.3287 26.8559C24.5368 26.8559 24.7545 26.8323 24.9627 26.7897C25.1709 26.7471 25.3743 26.6856 25.573 26.6052C25.7718 26.5247 25.961 26.4254 26.1361 26.3071C26.3159 26.1888 26.4815 26.0516 26.6329 25.9049C26.7796 25.7535 26.9168 25.5879 27.0351 25.4081C27.1534 25.233 27.2527 25.0438 27.3332 24.845C27.4136 24.6511 27.4751 24.4429 27.5177 24.2347C27.5603 24.0265 27.5839 23.8136 27.5839 23.6007C27.5839 23.3877 27.565 23.1748 27.5177 22.9666C27.4751 22.7585 27.4136 22.555 27.3332 22.3563Z" fill="#50A5A1"/>
</svg>
