<svg width="83" height="58" viewBox="0 0 83 58" fill="none" xmlns="http://www.w3.org/2000/svg">
<g clip-path="url(#clip0_1148_2681)">
<path d="M72.767 18.5696C71.9884 17.9306 70.2364 17.2915 69.4091 16.99L67.0488 16.1821C65.7226 15.7119 64.1653 15.121 63.046 13.9272C61.5373 12.3476 61.3305 10.3459 61.3305 8.98337C61.3305 6.47526 62.1092 4.34096 63.8246 2.59252C65.8443 0.54262 68.2533 0 70.9177 0C72.8887 0 76.0763 0.33763 79.4221 2.80956L76.4535 7.58462C74.3 5.66736 72.4507 5.53472 71.6355 5.53472C70.7352 5.53472 69.6159 5.66736 68.8372 6.51144C68.4114 6.93347 68.1073 7.57256 68.1073 8.29605C68.1073 8.98337 68.3262 9.48981 68.7521 9.87568C69.4456 10.5148 70.4311 10.768 72.3655 11.4915L74.519 12.2994C75.76 12.7696 77.3173 13.4087 78.4245 14.4699C80.1034 16.0495 80.5293 18.0873 80.5293 19.7514C80.5293 22.6936 79.4951 25.2499 77.9986 26.7813C75.468 29.422 71.7694 29.6753 69.8714 29.6753C67.8031 29.6753 66.0024 29.3738 64.2018 28.4815C62.7418 27.758 61.0628 26.4316 59.9922 25.3705L63.4353 20.6798C64.1653 21.4033 65.3211 22.38 66.0998 22.8503C67.2191 23.5376 68.3749 23.8753 69.7132 23.8753C70.5771 23.8753 71.7815 23.7064 72.7184 22.8985C73.278 22.4283 73.7525 21.6686 73.7525 20.5954C73.7525 19.6549 73.3632 19.064 72.767 18.5455V18.5696Z" fill="white"/>
<path d="M7.95684 58H6.07102L9.17349 51.7177L4.67188 42.9272H6.60635L10.0738 49.8728L13.2614 42.9272H15.1472L7.95684 58Z" fill="white"/>
<path d="M12.1665 29.0483L0 0.63916H7.12958L14.393 18.8229L21.6564 0.63916H28.7982L16.6316 29.0483H12.1665Z" fill="white"/>
<path d="M24.6864 44.4706H22.9953V52.622H21.292V44.4706H20.2578V42.9272H21.292V39.4182H22.9953V42.9272H24.6864V44.4706Z" fill="white"/>
<path d="M33.4819 48.7754C33.4819 49.9691 33.3602 50.8494 32.5816 51.6935C31.7056 52.6099 30.5498 52.9114 29.5886 52.9114C28.6274 52.9114 27.4716 52.6099 26.5956 51.6935C25.817 50.8494 25.6953 49.9691 25.6953 48.7754V42.9392H27.3986V48.5945C27.3986 49.2698 27.3986 50.0656 27.8731 50.6685C28.1286 50.9941 28.6518 51.4161 29.6008 51.4161C30.5498 51.4161 31.0607 50.9941 31.3162 50.6685C31.7907 50.0656 31.7907 49.2698 31.7907 48.5945V42.9392H33.4941V48.7754H33.4819Z" fill="white"/>
<path d="M46.8397 53.5625L40.4766 37.0427H42.411L46.8397 48.9321L51.2683 37.0427H53.2027L46.8397 53.5625Z" fill="white"/>
<path d="M82.7706 50.9941V52.6219H71.4922L80.0818 38.6706H72.5993V37.0427H83.0017L74.4243 50.9941H82.7706Z" fill="white"/>
<path d="M62.1603 36.7776C57.6343 36.7776 53.9844 40.1901 53.9844 44.8445C53.9844 49.499 57.61 52.9115 62.1603 52.9115C66.7106 52.9115 70.3362 49.4749 70.3362 44.8445C70.3362 40.2142 66.6862 36.7776 62.1603 36.7776ZM62.1603 51.2716C58.6198 51.2716 55.7729 48.4258 55.7729 44.8445C55.7729 41.2632 58.6198 38.4175 62.1603 38.4175C65.7007 38.4175 68.5477 41.2632 68.5477 44.8445C68.5477 48.4258 65.7007 51.2716 62.1603 51.2716Z" fill="white"/>
<path d="M54.6634 4.13597C51.78 1.36258 48.0449 0 43.5797 0C37.8615 0 34.2967 2.25489 32.3622 4.17214C29.7829 6.72848 27.9336 10.8644 27.9336 14.9522C27.9336 19.0399 29.6491 22.9588 32.3987 25.5152C34.5522 27.5651 38.2021 29.6873 43.5676 29.6873C48.3855 29.6873 51.9868 28.0715 54.6513 25.5152C57.7416 22.5368 59.1164 18.6541 59.1164 14.8678C59.1164 10.4786 57.3522 6.72848 54.6513 4.13597H54.6634ZM49.8577 21.2104C48.4828 22.573 46.4145 23.6341 43.4946 23.6341C41.2559 23.6341 39.1998 23.0432 37.3505 21.2948C35.5863 19.5946 34.7225 17.5085 34.7225 14.904C34.7225 11.7568 36.0122 9.67069 37.2532 8.47692C38.7983 6.94553 41.0369 6.05322 43.5311 6.05322C46.1469 6.05322 48.4342 7.11435 49.8455 8.47692C51.1352 9.75509 52.3396 11.9256 52.3396 14.8678C52.3396 18.1476 50.9648 20.1493 49.8455 21.2104H49.8577Z" fill="white"/>
</g>
<defs>
<clipPath id="clip0_1148_2681">
<rect width="83" height="58" fill="white"/>
</clipPath>
</defs>
</svg>
