<svg width="174" height="24" viewBox="0 0 174 24" fill="none" xmlns="http://www.w3.org/2000/svg">
<path d="M171.109 5.96865C170.542 5.93313 170.007 6.05194 169.538 6.28834C169.129 6.49534 168.648 6.2075 168.648 5.74451V0H162.954C162.377 0 162.017 0.62222 162.289 1.13665C162.52 1.57392 162.642 2.07856 162.618 2.61504C162.553 4.05668 161.404 5.24232 159.983 5.33174C158.345 5.43462 156.984 4.11914 156.984 2.48153C156.984 1.99772 157.103 1.5433 157.312 1.144C157.582 0.625894 157.227 0 156.648 0H150.625V6.43409C150.625 6.72561 150.947 6.88851 151.185 6.72561C151.669 6.39245 152.263 6.2075 152.9 6.23812C154.321 6.30549 155.489 7.47031 155.577 8.9095C155.679 10.5692 154.381 11.9471 152.764 11.9471C152.176 11.9471 151.629 11.7634 151.177 11.451C150.943 11.2881 150.625 11.4682 150.625 11.7548V18.1791H156.794C157.326 18.1791 157.66 17.59 157.385 17.1282C157.092 16.6334 156.941 16.0405 156.993 15.4097C157.107 14.0134 158.241 12.8927 159.622 12.8057C161.259 12.7028 162.62 14.0183 162.62 15.6559C162.62 16.1973 162.472 16.7032 162.214 17.1343C161.94 17.5924 162.28 18.1791 162.809 18.1791H168.649V12.4334C168.649 11.9814 169.12 11.674 169.517 11.8785C169.937 12.0941 170.411 12.2153 170.912 12.2153C172.682 12.2153 174.103 10.7063 173.992 8.88868C173.897 7.3319 172.647 6.06419 171.11 5.96621L171.109 5.96865Z" fill="white"/>
<path d="M11.4455 12.0623V0.262932H15.0872V18.988C14.1664 18.8546 12.5276 19.2984 11.8383 18.7289C9.2188 14.9583 6.80225 11.0003 3.90186 7.44515V18.6032C3.90186 19.2599 0.634703 18.9033 0 18.988V0.262932C0.959859 0.406576 2.80414 -0.0602675 3.50908 0.51944L11.4455 12.0597V12.0623Z" fill="white"/>
<path d="M53.5835 6.67587H49.8116C49.6894 6.67587 48.8596 5.15221 48.3888 4.74437C45.3765 2.13568 40.4264 3.48748 39.1544 7.19658C37.3049 12.5909 41.9065 17.7673 47.4393 15.1098C48.9792 14.3685 49.5099 12.5781 49.6842 12.5781H53.5861C49.7284 24.7648 31.3402 18.8164 35.5204 6.17824C38.2569 -2.09413 51.6325 -2.18903 53.5861 6.67843L53.5835 6.67587Z" fill="white"/>
<path d="M82.4661 4.36737H86.1078V18.9883C84.0294 18.778 81.6415 19.9835 82.2034 16.9362C80.0625 19.1986 77.8073 19.8527 74.7794 18.7446C69.4599 16.7952 71.3328 9.11276 71.0571 4.78804C71.2521 4.20064 74.7222 3.939 74.9225 5.00864C75.5624 8.43045 72.8467 16.6643 79.1885 15.8897C83.9046 15.3125 81.5375 7.47111 82.4661 4.36737Z" fill="white"/>
<path d="M102.233 18.9882C101.463 18.86 98.8127 19.2704 98.4459 18.7471C98.0349 18.1648 98.5162 11.8522 98.3107 10.4157C97.8554 7.25557 93.5738 6.28854 91.8726 8.89722C91.6151 9.29481 91.048 10.7877 91.048 11.1622V18.9857H87.4062V4.3673H91.048C91.165 4.3673 90.9596 6.38858 91.0506 6.67587C93.2825 4.25957 95.6496 3.42592 98.8517 4.75206C100.423 5.40102 102.233 8.00458 102.233 9.6257V18.9882Z" fill="white"/>
<path d="M131.111 13.5988L135.393 4.61331C135.76 4.24138 138.71 4.23112 139.18 4.48506C139.485 4.65179 139.438 4.81596 139.219 5.04425L130.937 21.7378C129.238 23.5025 126.772 23.3025 124.613 22.5637C124.528 22.4457 125.29 19.8627 125.399 19.7652C125.63 19.56 126.681 20.032 127.09 20.0243C128.104 20.0038 129.056 18.5596 129.22 17.6157L123.57 4.74413C123.596 4.21316 127.207 4.15417 127.597 4.61588L131.111 13.5936V13.5988Z" fill="white"/>
<path d="M107.177 0.263184V4.3673H111.339V7.7019H107.177V13.7298C107.177 13.9043 107.648 14.6866 107.814 14.8969C109.245 16.6848 111.638 15.5844 111.87 15.7639C112.163 15.9897 112.608 18.5086 112.229 18.7625C110.746 19.7578 107.078 19.0934 105.632 18.0751C104.948 17.5928 103.535 15.7768 103.535 15.0124V0.263184H107.177Z" fill="white"/>
<path d="M117.58 6.16312C119.014 4.94214 121.199 4.08541 123.04 4.63177L122.517 7.95611C120.325 7.88172 117.903 7.66112 117.572 10.3904C117.328 12.4193 118.051 17.039 117.541 18.5678C117.318 19.245 114.05 19.1168 113.79 18.7474C113.187 17.8983 113.985 6.73 113.712 4.78824C113.91 4.1957 116.618 4.23162 117.151 4.40348C117.804 4.61381 117.544 5.61163 117.58 6.16312Z" fill="white"/>
<path d="M22.3148 4.43403C19.2063 4.87522 16.6571 7.85071 16.397 10.9108C15.536 21.1327 31.4608 21.933 32.2724 12.7167C32.8186 6.50405 28.1624 3.60551 22.3148 4.43659V4.43403ZM29.9286 12.1754C29.7387 13.5247 27.9881 12.9475 27.8398 13.0886C27.6838 13.2322 28.1312 15.1766 27.5979 15.5434C27.3638 15.7024 25.3218 15.7409 25.2386 15.6562C25.0669 15.4844 25.7666 13.5298 24.2865 13.4041C23.1134 13.3041 22.7622 14.7405 23.1576 15.6537C22.5177 15.5613 20.754 15.9025 20.4107 15.4151C20.2494 15.1868 20.2104 13.1681 20.2962 13.0886C20.4627 12.9321 22.4032 13.5811 22.4032 11.9369C22.4032 10.2927 20.4627 10.9391 20.2962 10.7852C20.2182 10.7108 20.252 8.88957 20.3352 8.63819C20.5876 7.8738 22.4865 8.33038 23.1602 8.22008C23.2564 8.31242 22.3954 10.2927 24.0706 10.2952C25.738 10.2978 25.0851 8.37912 25.2412 8.21495C25.3296 8.12261 27.408 8.28421 27.845 8.21495V10.7826C28.9063 10.4517 30.1081 10.9185 29.9312 12.178L29.9286 12.1754Z" fill="white"/>
<path d="M60.2874 4.43403C57.179 4.87522 54.6297 7.85071 54.3696 10.9108C53.5086 21.1327 69.4334 21.933 70.245 12.7167C70.7913 6.50405 66.135 3.60551 60.2874 4.43659V4.43403ZM67.9013 12.1754C67.7114 13.5247 65.9608 12.9475 65.8125 13.0886C65.6564 13.2322 66.1038 15.1766 65.5706 15.5434C65.3391 15.7024 63.2945 15.7409 63.2112 15.6562C63.0396 15.4844 63.7393 13.5298 62.2592 13.4041C61.086 13.3041 60.7349 14.7405 61.1303 15.6537C60.4903 15.5613 58.7267 15.9025 58.3833 15.4151C58.2221 15.1868 58.183 13.1681 58.2689 13.0886C58.4354 12.9321 60.3759 13.5811 60.3759 11.9369C60.3759 10.2927 58.4354 10.9391 58.2689 10.7852C58.1908 10.7108 58.2247 8.88957 58.3079 8.63819C58.5602 7.8738 60.4591 8.33038 61.1329 8.22008C61.2291 8.31242 60.3681 10.2927 62.0433 10.2952C63.7107 10.2978 63.0578 8.37912 63.2138 8.21495C63.3023 8.12261 65.3807 8.28421 65.8177 8.21495V10.7826C66.879 10.4517 68.0808 10.9185 67.9039 12.178L67.9013 12.1754Z" fill="white"/>
</svg>
